<svg viewBox="0 0 18 18" id="icon--unfold-more" xmlns="http://www.w3.org/2000/svg">
<path d="M8.99998 4.37242L10.845 6.21742C11.1375 6.50992 11.61 6.50992 11.9025 6.21742C12.195 5.92492 12.195 5.45242 11.9025 5.15992L9.52498 2.77492C9.23248 2.48242 8.75998 2.48242 8.46748 2.77492L6.08998 5.15992C5.79748 5.45242 5.79748 5.92492 6.08998 6.21742C6.38248 6.50992 6.85498 6.50992 7.14748 6.21742L8.99998 4.37242ZM8.99998 13.6274L7.15498 11.7824C6.86248 11.4899 6.38998 11.4899 6.09748 11.7824C5.80498 12.0749 5.80498 12.5474 6.09748 12.8399L8.47498 15.2249C8.76748 15.5174 9.23998 15.5174 9.53248 15.2249L11.91 12.8474C12.2025 12.5549 12.2025 12.0824 11.91 11.7899C11.6175 11.4974 11.145 11.4974 10.8525 11.7899L8.99998 13.6274Z" />
</svg>
