<svg viewBox="0 0 18 18" id="icon--local-gas-station" xmlns="http://www.w3.org/2000/svg">
<path d="M14.8275 5.4225L14.835 5.415L12.4425 3.0225C12.225 2.805 11.865 2.805 11.6475 3.0225C11.43 3.24 11.43 3.6 11.6475 3.8175L12.8325 5.0025C12.045 5.3025 11.5125 6.105 11.6475 7.035C11.7675 7.86 12.4725 8.5275 13.2975 8.6175C13.65 8.655 13.9575 8.595 14.25 8.4675V13.875C14.25 14.2875 13.9125 14.625 13.5 14.625C13.0875 14.625 12.75 14.2875 12.75 13.875V10.5C12.75 9.675 12.075 9 11.25 9H10.5V3.75C10.5 2.925 9.825 2.25 9 2.25H4.5C3.675 2.25 3 2.925 3 3.75V15C3 15.4125 3.3375 15.75 3.75 15.75H9.75C10.1625 15.75 10.5 15.4125 10.5 15V10.125H11.625V13.77C11.625 14.7525 12.33 15.645 13.305 15.7425C14.43 15.855 15.375 14.9775 15.375 13.875V6.75C15.375 6.2325 15.165 5.76 14.8275 5.4225ZM9 7.5H4.5V4.5C4.5 4.0875 4.8375 3.75 5.25 3.75H8.25C8.6625 3.75 9 4.0875 9 4.5V7.5ZM13.5 7.5C13.0875 7.5 12.75 7.1625 12.75 6.75C12.75 6.3375 13.0875 6 13.5 6C13.9125 6 14.25 6.3375 14.25 6.75C14.25 7.1625 13.9125 7.5 13.5 7.5Z" />
</svg>
