<svg viewBox="0 0 18 18" id="icon--bar-chart" xmlns="http://www.w3.org/2000/svg">
<path d="M4.8 6.9H4.95C5.5275 6.9 6 7.3725 6 7.95V13.2C6 13.7775 5.5275 14.25 4.95 14.25H4.8C4.2225 14.25 3.75 13.7775 3.75 13.2V7.95C3.75 7.3725 4.2225 6.9 4.8 6.9V6.9ZM9 3.75C9.5775 3.75 10.05 4.2225 10.05 4.8V13.2C10.05 13.7775 9.5775 14.25 9 14.25C8.4225 14.25 7.95 13.7775 7.95 13.2V4.8C7.95 4.2225 8.4225 3.75 9 3.75ZM13.2 9.75C13.7775 9.75 14.25 10.2225 14.25 10.8V13.2C14.25 13.7775 13.7775 14.25 13.2 14.25C12.6225 14.25 12.15 13.7775 12.15 13.2V10.8C12.15 10.2225 12.6225 9.75 13.2 9.75V9.75Z" />
</svg>
