<svg viewBox="0 0 18 18" id="icon--swap-horiz" xmlns="http://www.w3.org/2000/svg">
<path d="M4.60496 8.895L2.51996 10.9875C2.37746 11.1375 2.37746 11.37 2.51996 11.52L4.60496 13.6125C4.83746 13.8525 5.24246 13.68 5.24246 13.35V12H9.74996C10.1625 12 10.5 11.6625 10.5 11.25C10.5 10.8375 10.1625 10.5 9.74996 10.5H5.24246V9.15751C5.24246 8.82001 4.83746 8.655 4.60496 8.895V8.895ZM15.4875 6.4875L13.4025 4.395C13.17 4.155 12.765 4.3275 12.765 4.6575V6H8.24996C7.83746 6 7.49996 6.3375 7.49996 6.75C7.49996 7.16251 7.83746 7.50001 8.24996 7.50001H12.7575V8.84251C12.7575 9.18001 13.1625 9.34501 13.395 9.10501L15.48 7.01251C15.63 6.87001 15.63 6.63 15.4875 6.4875V6.4875Z" />
</svg>
