<svg viewBox="0 0 18 18" id="icon--storage" xmlns="http://www.w3.org/2000/svg">
<path d="M3 15H15C15.825 15 16.5 14.325 16.5 13.5C16.5 12.675 15.825 12 15 12H3C2.175 12 1.5 12.675 1.5 13.5C1.5 14.325 2.175 15 3 15ZM3 12.75H4.5V14.25H3V12.75ZM1.5 4.5C1.5 5.325 2.175 6 3 6H15C15.825 6 16.5 5.325 16.5 4.5C16.5 3.675 15.825 3 15 3H3C2.175 3 1.5 3.675 1.5 4.5ZM4.5 5.25H3V3.75H4.5V5.25ZM3 10.5H15C15.825 10.5 16.5 9.825 16.5 9C16.5 8.175 15.825 7.5 15 7.5H3C2.175 7.5 1.5 8.175 1.5 9C1.5 9.825 2.175 10.5 3 10.5ZM3 8.25H4.5V9.75H3V8.25Z"  />
</svg>
