<svg viewBox="0 0 18 18" id="icon--card-giftcard" xmlns="http://www.w3.org/2000/svg">
<path d="M15 4.5H13.365C13.4475 4.2675 13.5 4.0125 13.5 3.75C13.5 2.505 12.495 1.5 11.25 1.5C10.4625 1.5 9.78 1.905 9.375 2.5125L9 3.015L8.625 2.505C8.22 1.905 7.5375 1.5 6.75 1.5C5.505 1.5 4.5 2.505 4.5 3.75C4.5 4.0125 4.5525 4.2675 4.635 4.5H3C2.1675 4.5 1.5075 5.1675 1.5075 6L1.5 14.25C1.5 15.0825 2.1675 15.75 3 15.75H15C15.8325 15.75 16.5 15.0825 16.5 14.25V6C16.5 5.1675 15.8325 4.5 15 4.5ZM11.25 3C11.6625 3 12 3.3375 12 3.75C12 4.1625 11.6625 4.5 11.25 4.5C10.8375 4.5 10.5 4.1625 10.5 3.75C10.5 3.3375 10.8375 3 11.25 3ZM6.75 3C7.1625 3 7.5 3.3375 7.5 3.75C7.5 4.1625 7.1625 4.5 6.75 4.5C6.3375 4.5 6 4.1625 6 3.75C6 3.3375 6.3375 3 6.75 3ZM15 14.25H3V12.75H15V14.25ZM15 10.5H3V6.75C3 6.3375 3.3375 6 3.75 6H6.81L5.7 7.515C5.4525 7.8525 5.5275 8.325 5.865 8.565C6.195 8.805 6.6675 8.73 6.9075 8.4L9 5.55L11.0925 8.4C11.3325 8.73 11.805 8.805 12.135 8.565C12.4725 8.325 12.5475 7.8525 12.3 7.515L11.19 6H14.25C14.6625 6 15 6.3375 15 6.75V10.5Z" />
</svg>
