<svg viewBox="0 0 18 18" id="icon--pie-chart" xmlns="http://www.w3.org/2000/svg">
<path d="M8.25 2.38503V15.615C8.25 16.095 7.8075 16.455 7.3425 16.35C3.99 15.6 1.5 12.5925 1.5 9.00003C1.5 5.40753 3.99 2.40003 7.3425 1.65003C7.8075 1.54503 8.25 1.90503 8.25 2.38503ZM9.7725 2.38503V7.49253C9.7725 7.90503 10.11 8.24253 10.5225 8.24253H15.615C16.095 8.24253 16.455 7.80003 16.35 7.32753C15.7125 4.50753 13.5 2.28753 10.6875 1.65003C10.215 1.54503 9.7725 1.90503 9.7725 2.38503ZM9.7725 10.5075V15.615C9.7725 16.095 10.215 16.455 10.6875 16.35C13.5075 15.7125 15.72 13.485 16.3575 10.665C16.4625 10.2 16.095 9.75003 15.6225 9.75003H10.53C10.11 9.75753 9.7725 10.095 9.7725 10.5075Z"  />
</svg>
