<svg viewBox="0 0 18 18" id="icon--settings" xmlns="http://www.w3.org/2000/svg">
<path d="M14.5726 9.735C14.6026 9.495 14.6251 9.255 14.6251 9C14.6251 8.745 14.6026 8.505 14.5726 8.265L16.1551 7.0275C16.2976 6.915 16.3351 6.7125 16.2451 6.5475L14.7451 3.9525C14.6551 3.7875 14.4526 3.7275 14.2876 3.7875L12.4201 4.5375C12.0301 4.2375 11.6101 3.99 11.1526 3.8025L10.8676 1.815C10.8451 1.635 10.6876 1.5 10.5001 1.5H7.50012C7.31262 1.5 7.15512 1.635 7.13262 1.815L6.84762 3.8025C6.39012 3.99 5.97012 4.245 5.58012 4.5375L3.71262 3.7875C3.54012 3.72 3.34512 3.7875 3.25512 3.9525L1.75512 6.5475C1.65762 6.7125 1.70262 6.915 1.84512 7.0275L3.42762 8.265C3.39762 8.505 3.37512 8.7525 3.37512 9C3.37512 9.2475 3.39762 9.495 3.42762 9.735L1.84512 10.9725C1.70262 11.085 1.66512 11.2875 1.75512 11.4525L3.25512 14.0475C3.34512 14.2125 3.54762 14.2725 3.71262 14.2125L5.58012 13.4625C5.97012 13.7625 6.39012 14.01 6.84762 14.1975L7.13262 16.185C7.15512 16.365 7.31262 16.5 7.50012 16.5H10.5001C10.6876 16.5 10.8451 16.365 10.8676 16.185L11.1526 14.1975C11.6101 14.01 12.0301 13.755 12.4201 13.4625L14.2876 14.2125C14.4601 14.28 14.6551 14.2125 14.7451 14.0475L16.2451 11.4525C16.3351 11.2875 16.2976 11.085 16.1551 10.9725L14.5726 9.735ZM9.00012 11.625C7.55262 11.625 6.37512 10.4475 6.37512 9C6.37512 7.5525 7.55262 6.375 9.00012 6.375C10.4476 6.375 11.6251 7.5525 11.6251 9C11.6251 10.4475 10.4476 11.625 9.00012 11.625Z" />
</svg>
