<svg width="198" height="22" viewBox="0 0 198 22" fill="none" xmlns="http://www.w3.org/2000/svg">
<g clip-path="url(#clip0_2402_65321)">
<path d="M14.3233 15.6878H5.67793L3.37296 13.3904L6.98251 9.79271H3.79205L0 13.5723L4.38012 17.938H16.5742L14.3233 15.6878Z" fill="#FF284C"/>
<path d="M16.9999 3.93805H2.71716L4.73148 5.94575H12.1331L11.207 6.86876H6.72551L4.70444 8.87646H9.18595L5.27899 12.7773L6.70523 14.1989L16.9999 3.93805Z" fill="#EBE014"/>
<path d="M10.2675 14.7783L16.3645 8.69456H13.5188L7.41504 14.7783H10.2675Z" fill="#EBE014"/>
</g>
<path d="M30.3405 15.9381H27.0496C26.4434 15.9381 25.9478 15.7595 25.5629 15.4023C25.1876 15.036 25 14.5644 25 13.9875V7.8886C25 7.31168 25.1876 6.84465 25.5629 6.4875C25.9478 6.1212 26.4434 5.93805 27.0496 5.93805H30.3405C30.9468 5.93805 31.4375 6.1212 31.8128 6.4875C32.1977 6.84465 32.3902 7.31168 32.3902 7.8886V9.48201H30.3117V8.27322C30.3117 7.96186 30.1481 7.80619 29.8209 7.80619H27.5692C27.2421 7.80619 27.0785 7.96186 27.0785 8.27322V13.6029C27.0785 13.9142 27.2421 14.0699 27.5692 14.0699H29.8209C30.1481 14.0699 30.3117 13.9142 30.3117 13.6029V12.3941H32.3902V13.9875C32.3902 14.5644 32.1977 15.036 31.8128 15.4023C31.4375 15.7595 30.9468 15.9381 30.3405 15.9381Z" fill="white" fill-opacity="0.96"/>
<path d="M38.1788 15.8831H36.1003V12.4628L32.896 5.993H35.1766L37.1396 10.2238L39.1026 5.993H41.3831L38.1788 12.4628V15.8831Z" fill="white" fill-opacity="0.96"/>
<path d="M42.3157 5.993H47.5696C48.1759 5.993 48.6666 6.17615 49.0419 6.54245C49.4268 6.89959 49.6193 7.36662 49.6193 7.94355V9.34465C49.6193 9.98567 49.3161 10.4802 48.7099 10.8282C49.3931 11.1487 49.7347 11.6432 49.7347 12.3117V13.9326C49.7347 14.5095 49.5423 14.9811 49.1574 15.3474C48.7821 15.7045 48.2913 15.8831 47.6851 15.8831H42.3157V5.993ZM44.3942 9.94904H47.05C47.2425 9.94904 47.3724 9.92157 47.4397 9.86662C47.5071 9.80252 47.5408 9.67432 47.5408 9.48201V8.30069C47.5408 7.98934 47.3772 7.83366 47.05 7.83366H44.3942V9.94904ZM44.3942 14.0424H47.1655C47.4927 14.0424 47.6562 13.8868 47.6562 13.5754V12.1468C47.6562 11.9637 47.6081 11.8446 47.5119 11.7897C47.4157 11.7348 47.2425 11.7073 46.9923 11.7073H44.3942V14.0424Z" fill="white" fill-opacity="0.96"/>
<path d="M51.4006 5.993H58.199V7.86113H53.4791V9.8941H57.3041V11.7622H53.4791V14.015H58.199V15.8831H51.4006V5.993Z" fill="white" fill-opacity="0.96"/>
<path d="M67.4028 15.8831H65.1656L63.4912 12.2155H61.8169V15.8831H59.7384V5.993H65.0357C65.6419 5.993 66.1326 6.17615 66.5079 6.54245C66.8928 6.89959 67.0853 7.36662 67.0853 7.94355V10.265C67.0853 10.732 66.9554 11.1304 66.6956 11.46C66.4454 11.7897 66.1038 12.0141 65.6708 12.1331L67.4028 15.8831ZM65.0068 9.90783V8.32816C65.0068 8.01681 64.8432 7.86113 64.516 7.86113H61.8169V10.3749H64.516C64.8432 10.3749 65.0068 10.2192 65.0068 9.90783Z" fill="white" fill-opacity="0.96"/>
<path d="M68.8374 15.8831V5.993H75.6358V7.86113H70.9159V9.97652H74.7409V11.8446H70.9159V15.8831H68.8374Z" fill="white" fill-opacity="0.96"/>
<path d="M76.9215 15.8831V5.993H79V15.8831H76.9215Z" fill="white" fill-opacity="0.96"/>
<line x1="86.5" y1="18.9381" x2="86.5" y2="2.93805" stroke="white" stroke-opacity="0.48"/>
<g clip-path="url(#clip1_2402_65321)">
<path d="M131.261 3.32641L127.315 17.4326H131.205L134.01 7.00035L133.47 5.64745H137.565L137.999 8.93042L135.871 10.8605L138.589 21.8761H139.408L139.762 10.8605L141.902 8.93042L141.096 3.34503L131.261 3.32641ZM119.385 3.32641L111.133 17.4326H115.023L118.938 10.6681L123.331 13.7711L122.09 14.6399L121.37 17.445H125.056L129.009 3.32641H119.385ZM123.387 10.2833L120.285 8.15467L121.817 5.67227H124.684L123.387 10.2833ZM157.669 3.32641L153.735 17.4326H165.611L169.557 3.32641H157.669ZM164.922 7.00035L162.49 15.304H156.564L158.426 14.1497L160.728 5.64745H166.666L164.922 7.00035ZM176.283 15.2605H170.55L172.2 13.9511L174.422 5.64745H180.155L178.523 6.82659L178.095 7.98711H181.985L183.276 3.35123H171.4L167.454 17.4574H179.33L181.048 11.6611H177.158L176.283 15.2605ZM198 0.0434419H194.11L193.824 0.812984L195.028 2.55687H193.39L191.528 9.31519L188.283 7.00035L189.431 3.32641H185.131L181.179 17.4326H185.479L187.626 9.92958L190.058 11.6673L189.09 12.6354L194.494 21.9071H195.313L193.818 11.4749L195.344 9.5386L198 0.0434419ZM149.267 14.5344H146.401L148.765 6.41699H147.524L149.044 5.06409L149.664 3.32641H146.01L142.057 17.4326H151.687L153.406 11.6362L150.62 10.2833L149.267 14.5344ZM95 0L97.5254 17.4264H102.384L99.7033 0H95ZM114.012 0L113.267 1.19155L114.049 2.68099H112.373L103.594 17.4264H108.75L118.858 0H114.012Z" fill="#AE1737"/>
<path d="M121.979 14.7516L121.358 17.4264H125.162L125.59 15.3412L123.282 13.7028L121.979 14.7516ZM135.871 10.8605H139.762L141.902 8.93042H138.012L135.871 10.8605ZM158.37 15.304H156.564L153.946 16.6817L153.741 17.4326H165.611L162.508 15.304H158.37ZM172.3 15.2605H170.562L167.596 17.023L167.485 17.4326H179.361L176.283 15.2605H172.3ZM194.277 14.4786L190.083 11.6362L189.115 12.6044L194.519 21.8761H195.338L194.277 14.4786ZM101.416 11.1211L102.384 17.4264L109.377 5.51092H104.81L101.416 11.1211Z" fill="#7F1926"/>
<g style="mix-blend-mode:screen" opacity="0.88">
<path d="M101.925 17.4264H102.384L100.045 2.20933L101.925 17.4264ZM146.953 6.55352H148.473L146.401 14.5344L148.765 6.41699H147.561L149.056 5.0765L149.677 3.33882L148.833 5.03306L146.953 6.55352ZM151.514 17.4326H151.687L153.406 11.6362L152.786 11.3445L151.514 17.4326ZM165.512 16.9796L162.502 15.304L165.605 17.4326L169.551 3.32641H169.414L165.512 16.9796ZM141.654 8.9118H138.012L141.356 9.21589L139.762 10.8605L141.902 8.93042L141.096 3.34503L141.654 8.9118ZM139.408 21.8761L139.749 11.3259L139.098 21.8761H139.408ZM125.615 15.3412L125.764 14.8944L119.006 10.7239L125.615 15.3412ZM123.412 10.2771L125.025 5.65986H124.566L123.412 10.2771ZM118.578 0L108.651 17.4264H108.806L118.858 0H118.578ZM156.564 15.304L158.426 14.1497L158.587 13.5291L153.946 16.6817L156.564 15.304ZM176.296 15.2605L179.33 17.4326L181.048 11.6362L179.187 16.6817L176.296 15.2605ZM183.276 3.32641H182.96L181.52 7.96228H181.985L183.276 3.32641ZM181.173 17.4326H181.65L185.373 3.32641H185.1L181.173 17.4326ZM193.39 2.53825L191.528 9.29657L190.517 8.57047L192.056 10.1096L193.619 2.53825H193.39ZM111.133 17.4326L119.621 3.57465L129.009 3.32641H119.385L111.133 17.4326ZM157.669 3.32641L154.566 14.4475L157.917 3.32641H157.669ZM172.2 13.9511L174.422 5.64745L171.431 14.5592L172.2 13.9511ZM178.765 7.00035L180.174 5.64745L178.523 6.82659L178.095 7.98711H178.455L178.765 7.00035Z" fill="#E3505E"/>
</g>
</g>
<defs>
<clipPath id="clip0_2402_65321">
<rect width="17" height="14" fill="white" transform="translate(0 3.93805)"/>
</clipPath>
<clipPath id="clip1_2402_65321">
<rect width="103" height="21.8761" fill="white" transform="translate(95)"/>
</clipPath>
</defs>
</svg>
